<?xml version="1.0" standalone="no"?>
<!DOCTYPE svg PUBLIC "-//W3C//DTD SVG 20010904//EN"
 "http://www.w3.org/TR/2001/REC-SVG-20010904/DTD/svg10.dtd">
<svg version="1.0" xmlns="http://www.w3.org/2000/svg"
 width="686.000000pt" height="386.000000pt" viewBox="0 0 686.000000 386.000000"
 preserveAspectRatio="xMidYMid meet">

<g transform="translate(0.000000,386.000000) scale(0.100000,-0.100000)"
fill="#000000" stroke="none">
<path d="M5130 2691 c-19 -10 -45 -33 -57 -51 -20 -29 -23 -46 -23 -136 0 -70
-4 -105 -12 -111 -7 -4 -60 -24 -117 -43 -58 -19 -106 -39 -108 -45 -1 -5 2
-17 7 -25 8 -13 20 -12 97 9 48 13 97 24 108 25 20 1 20 -7 25 -614 6 -685 1
-644 75 -690 32 -20 48 -20 726 -20 675 0 695 1 727 20 18 11 41 34 52 52 19
32 20 52 20 788 0 736 -1 756 -20 788 -11 18 -34 41 -52 52 -32 19 -52 20
-723 20 -653 0 -692 -1 -725 -19z m1415 -45 c18 -8 38 -23 44 -34 17 -32 15
-1489 -2 -1522 -24 -48 -37 -48 -752 -46 -722 2 -700 0 -724 53 -13 28 -16
1233 -3 1233 4 0 61 -76 126 -168 349 -488 420 -584 431 -589 23 -8 625 228
640 251 13 22 185 616 185 641 0 18 -32 36 -47 27 -5 -4 -25 -56 -42 -117 -18
-60 -38 -115 -44 -121 -7 -7 -118 -35 -247 -64 -129 -28 -332 -74 -450 -101
-118 -28 -223 -51 -233 -52 -14 -1 -57 51 -156 188 -91 125 -143 190 -154 189
-15 -2 -17 10 -17 90 0 99 12 126 60 145 15 6 280 10 688 10 550 1 668 -1 697
-13z"/>
<path d="M6215 1611 c-73 -33 -102 -124 -67 -204 58 -131 229 -115 271 24 21
71 -18 157 -85 185 -44 18 -71 17 -119 -5z"/>
<path d="M5744 1446 c-65 -29 -104 -115 -83 -185 6 -22 27 -55 46 -73 31 -30
39 -33 98 -33 54 0 67 4 90 25 39 37 55 73 55 128 0 110 -106 181 -206 138z"/>
<path d="M1845 2659 c-93 -38 -169 -112 -216 -207 -32 -66 -49 -72 -49 -18 0
49 -66 145 -127 184 -69 44 -140 56 -216 37 -60 -15 -127 -57 -154 -94 -20
-30 -38 -26 -81 17 -115 115 -287 115 -399 2 -43 -44 -63 -46 -63 -5 0 35 -39
75 -80 81 -45 7 -85 -23 -100 -74 -13 -50 -13 -804 0 -854 23 -80 98 -102 156
-44 l34 34 0 309 0 309 29 46 c61 95 147 120 230 65 l41 -27 0 -359 c0 -341 1
-360 20 -383 47 -60 133 -58 184 3 l26 31 0 312 0 312 29 45 c15 25 41 55 56
67 54 43 143 19 185 -50 19 -31 20 -51 20 -351 0 -215 4 -325 11 -340 28 -54
83 -71 139 -42 46 24 60 52 61 125 0 36 4 74 8 85 7 18 9 17 24 -11 31 -59
114 -139 179 -172 178 -90 362 -53 504 101 61 67 67 71 77 52 7 -11 37 -45 67
-76 169 -169 422 -167 593 6 31 32 57 62 57 67 0 4 4 8 9 8 5 0 11 -32 13 -71
3 -65 6 -74 36 -100 41 -37 90 -39 129 -5 l28 24 5 314 c5 292 7 316 27 359
42 91 119 142 187 125 30 -7 78 -47 107 -87 20 -29 21 -39 20 -334 -1 -185 2
-319 8 -343 14 -51 40 -73 94 -79 36 -4 48 -1 74 21 17 15 34 40 38 56 8 36
15 37 45 5 31 -33 118 -65 197 -72 83 -8 166 11 261 59 42 21 80 38 84 38 4 0
14 -15 22 -34 19 -46 55 -68 102 -64 73 6 104 93 68 189 -14 36 -18 101 -23
349 -7 344 -7 344 -87 405 -67 52 -141 70 -279 70 -112 0 -124 -2 -174 -28
-66 -35 -144 -107 -178 -164 -14 -24 -28 -43 -32 -43 -4 0 -13 15 -19 34 -23
64 -88 133 -158 167 -57 28 -71 31 -127 27 -80 -7 -134 -34 -190 -99 l-46 -53
-11 28 c-5 15 -10 34 -10 41 0 29 -45 66 -86 72 -36 5 -46 1 -75 -25 -33 -30
-34 -32 -37 -121 -2 -50 -7 -91 -11 -91 -4 0 -16 19 -28 43 -32 65 -105 140
-175 178 -60 33 -67 34 -168 34 -95 0 -111 -3 -162 -28 -71 -35 -137 -98 -178
-171 -18 -31 -35 -56 -38 -56 -4 0 -20 25 -35 55 -36 68 -111 139 -185 173
-78 37 -213 42 -287 11z m2468 -171 c22 -7 55 -26 73 -44 31 -28 34 -37 34
-87 0 -31 -4 -58 -9 -61 -5 -3 -56 -15 -113 -26 -182 -35 -298 -82 -373 -151
-23 -21 -45 -39 -49 -39 -3 0 -6 65 -6 145 0 80 2 145 4 145 3 0 18 -13 34
-30 17 -17 41 -30 55 -30 30 0 72 32 91 69 34 65 119 120 185 121 18 0 52 -5
74 -12z m-2246 -24 c51 -38 82 -88 93 -147 6 -31 8 -62 5 -67 -4 -6 -85 -10
-207 -10 l-200 0 4 55 c6 73 48 141 108 173 57 30 154 28 197 -4z m762 -8 c52
-36 94 -117 89 -172 l-3 -39 -200 0 -200 0 1 46 c3 75 59 161 124 188 14 6 53
10 86 8 49 -2 71 -9 103 -31z m1589 -409 l3 -107 -43 -46 c-95 -103 -226 -120
-298 -37 -25 28 -30 42 -30 87 0 65 21 96 89 130 60 31 242 86 266 81 6 -1 11
-48 13 -108z m-2090 1 l3 -58 -44 0 c-42 0 -46 -3 -83 -52 -100 -133 -236
-155 -348 -57 -52 46 -79 92 -97 164 -10 39 -9 49 2 56 8 5 138 8 289 6 l275
-2 3 -57z m780 0 l-3 -63 -57 3 c-56 3 -57 3 -81 -35 -55 -85 -133 -133 -219
-133 -106 0 -215 102 -234 219 -12 75 -29 71 301 71 l296 0 -3 -62z"/>
<path d="M2369 1691 l-24 -19 -3 -284 c-4 -306 1 -347 43 -366 31 -14 54 -7
81 26 l22 25 44 -22 c24 -11 60 -21 79 -21 83 1 167 71 194 162 19 65 19 101
0 164 -38 129 -166 197 -270 144 -22 -11 -43 -20 -47 -20 -4 0 -8 43 -8 95 0
84 -2 96 -22 115 -27 25 -59 26 -89 1z m266 -283 c34 -27 55 -75 55 -128 0
-53 -21 -101 -55 -128 -35 -28 -65 -28 -99 -1 -38 30 -56 71 -56 129 0 58 18
99 56 129 34 27 64 27 99 -1z"/>
<path d="M3024 1531 c-71 -18 -144 -85 -144 -132 0 -20 31 -49 52 -49 9 0 30
18 47 39 51 64 129 77 180 30 29 -27 28 -67 -1 -73 -192 -38 -259 -68 -282
-127 -19 -47 -20 -79 -4 -114 31 -69 190 -90 292 -38 27 14 30 13 53 -11 28
-31 54 -33 77 -7 21 23 22 45 7 126 -6 33 -11 108 -11 166 0 119 -13 149 -75
175 -41 17 -150 26 -191 15z m156 -310 c0 -49 -16 -74 -67 -100 -33 -17 -88
-13 -113 7 -26 21 -30 66 -7 89 16 17 167 64 180 56 4 -2 7 -26 7 -52z"/>
<path d="M3985 1531 c-106 -28 -177 -118 -129 -165 25 -26 50 -19 84 24 41 52
91 68 143 46 42 -17 68 -59 49 -78 -7 -7 -51 -20 -99 -29 -154 -32 -216 -82
-216 -175 0 -50 20 -79 70 -100 48 -21 153 -18 212 6 l51 20 25 -26 c32 -31
64 -28 84 8 13 23 13 34 3 73 -7 25 -12 105 -12 179 0 122 -2 136 -22 161 -12
15 -36 33 -53 41 -41 17 -150 26 -190 15z m153 -284 c2 -11 1 -34 -3 -53 -14
-78 -143 -113 -189 -51 -19 26 -19 30 -6 55 11 20 33 33 80 49 76 26 113 26
118 0z"/>
<path d="M4390 1522 c-8 -2 -23 -11 -32 -20 -16 -13 -18 -38 -18 -228 0 -236
2 -244 64 -244 52 0 56 11 56 159 0 116 3 141 19 167 23 38 79 61 110 45 28
-15 38 -14 61 9 26 26 25 53 -3 86 -19 22 -32 27 -68 27 -24 0 -59 -8 -77 -17
-29 -15 -36 -16 -50 -3 -22 18 -44 25 -62 19z"/>
<path d="M3372 1498 c-7 -7 -12 -24 -12 -38 0 -43 16 -50 122 -50 54 0 98 -3
98 -7 0 -5 -52 -73 -115 -152 -63 -79 -115 -150 -115 -157 0 -8 9 -23 20 -34
19 -19 33 -20 209 -20 205 0 221 4 221 55 0 47 -22 55 -146 55 -63 0 -114 3
-114 6 0 3 47 63 104 134 130 160 132 164 111 196 -15 24 -16 24 -193 24 -125
0 -182 -4 -190 -12z"/>
</g>
</svg>
